<svg width="123" height="72" viewBox="0 0 123 72" fill="none" xmlns="http://www.w3.org/2000/svg">
<circle cx="61" cy="36" r="36" fill="#EE788E"/>
<path d="M8.66602 22.084C8.66602 22.2012 8.64844 22.3066 8.61328 22.4004C8.58984 22.4824 8.56055 22.5703 8.52539 22.6641C8.32617 23.1328 8.11523 23.5957 7.89258 24.0527C7.68164 24.498 7.50586 24.9727 7.36523 25.4766C7.00195 26.8008 6.70898 28.1777 6.48633 29.6074C6.27539 31.0254 6.12305 32.4844 6.0293 33.9844C6.97852 34.0078 7.97461 34.125 9.01758 34.3359C10.0605 34.5469 11.0742 34.8574 12.0586 35.2676C12.7969 34.8223 13.4707 34.3066 14.0801 33.7207C14.7012 33.1348 15.2285 32.4844 15.6621 31.7695C16.1074 31.0547 16.4473 30.2871 16.6816 29.4668C16.9277 28.6465 17.0391 27.7852 17.0156 26.8828C17.0156 25.5352 16.7812 24.3281 16.3125 23.2617C15.8555 22.1953 15.2402 21.293 14.4668 20.5547C13.7051 19.8164 12.832 19.2539 11.8477 18.8672C10.8633 18.4688 9.84961 18.2695 8.80664 18.2695C8.08008 18.2695 7.32422 18.4043 6.53906 18.6738C5.75391 18.9434 5.03906 19.3184 4.39453 19.7988C3.75 20.2793 3.2168 20.8594 2.79492 21.5391C2.38477 22.2188 2.17969 22.9688 2.17969 23.7891C2.17969 24.1055 2.21484 24.3926 2.28516 24.6504C2.36719 24.9082 2.44922 25.1426 2.53125 25.3535C2.625 25.5645 2.70703 25.7637 2.77734 25.9512C2.85938 26.127 2.90039 26.3027 2.90039 26.4785C2.90039 26.8184 2.7832 27.1055 2.54883 27.3398C2.32617 27.5625 2.05078 27.6738 1.72266 27.6738C1.41797 27.6738 1.17773 27.5918 1.00195 27.4277C0.826172 27.2637 0.685547 27.0586 0.580078 26.8125C0.486328 26.5664 0.421875 26.3086 0.386719 26.0391C0.363281 25.7578 0.351562 25.5117 0.351562 25.3008C0.351562 24.2695 0.591797 23.3379 1.07227 22.5059C1.56445 21.6621 2.20312 20.9121 2.98828 20.2559C3.48047 19.834 3.97266 19.4648 4.46484 19.1484C4.96875 18.8203 5.48438 18.5508 6.01172 18.3398C6.53906 18.1172 7.08984 17.9531 7.66406 17.8477C8.25 17.7305 8.87109 17.6719 9.52734 17.6719C11.1094 17.6719 12.5332 17.9062 13.7988 18.375C15.0645 18.832 16.1367 19.4648 17.0156 20.2734C17.8945 21.0703 18.5684 22.002 19.0371 23.0684C19.5176 24.1348 19.7578 25.2715 19.7578 26.4785C19.7578 27.5918 19.5879 28.623 19.248 29.5723C18.9082 30.5098 18.4453 31.3711 17.8594 32.1562C17.2734 32.9297 16.582 33.6211 15.7852 34.2305C14.9883 34.8398 14.127 35.3672 13.2012 35.8125C13.7988 36.1406 14.3496 36.5156 14.8535 36.9375C15.3691 37.3477 15.8145 37.8164 16.1895 38.3438C16.5645 38.8594 16.8574 39.4277 17.0684 40.0488C17.2793 40.6699 17.3848 41.3438 17.3848 42.0703C17.3848 42.8672 17.2266 43.6172 16.9102 44.3203C16.5938 45.0352 16.166 45.6621 15.627 46.2012C15.0879 46.752 14.4609 47.1855 13.7461 47.502C13.043 47.8184 12.2988 47.9766 11.5137 47.9766C11.0566 47.9766 10.5762 47.8887 10.0723 47.7129C9.56836 47.5488 9.08789 47.3262 8.63086 47.0449C8.17383 46.7637 7.75195 46.4414 7.36523 46.0781C6.97852 45.7148 6.66797 45.3398 6.43359 44.9531L6.67969 44.7422C7.27734 45.2461 7.95703 45.6504 8.71875 45.9551C9.49219 46.2715 10.2656 46.4297 11.0391 46.4297C11.6367 46.3359 12.1699 46.125 12.6387 45.7969C13.1191 45.4688 13.5234 45.0645 13.8516 44.584C14.1797 44.1152 14.4258 43.5938 14.5898 43.0195C14.7656 42.457 14.8535 41.8887 14.8535 41.3145C14.8535 40.1543 14.5957 39.1641 14.0801 38.3438C13.5762 37.5234 12.9199 36.8438 12.1113 36.3047C11.1035 36.7031 10.0723 37.002 9.01758 37.2012C7.96289 37.4004 6.91992 37.5117 5.88867 37.5352C5.86523 39.3867 5.88867 41.2031 5.95898 42.9844C6.04102 44.7773 6.14062 46.4766 6.25781 48.082L5.92383 48.1875C5.63086 47.4141 5.37891 46.5879 5.16797 45.709C4.95703 44.8301 4.78125 43.9277 4.64062 43.002C4.5 42.0762 4.38281 41.1445 4.28906 40.207C4.20703 39.2578 4.14844 38.3262 4.11328 37.4121C3.83203 37.3652 3.54492 37.3008 3.25195 37.2188C2.9707 37.125 2.71289 37.0137 2.47852 36.8848C2.25586 36.7441 2.07422 36.5801 1.93359 36.3926C1.79297 36.2051 1.72266 35.9766 1.72266 35.707C1.72266 35.4375 1.78711 35.209 1.91602 35.0215C2.05664 34.834 2.23828 34.6758 2.46094 34.5469C2.68359 34.4062 2.93555 34.3008 3.2168 34.2305C3.49805 34.1484 3.7793 34.0898 4.06055 34.0547C4.06055 33.5625 4.06641 32.959 4.07812 32.2441C4.08984 31.5293 4.11914 30.7734 4.16602 29.9766C4.22461 29.168 4.30664 28.3535 4.41211 27.5332C4.5293 26.7012 4.69336 25.9219 4.9043 25.1953C5.11523 24.4688 5.37891 23.8242 5.69531 23.2617C6.01172 22.6992 6.4043 22.2832 6.87305 22.0137C7.04883 21.9082 7.24219 21.8145 7.45312 21.7324C7.66406 21.6387 7.88672 21.5918 8.12109 21.5918C8.48438 21.5918 8.66602 21.7559 8.66602 22.084ZM5.90625 37.0605C6.82031 37.0488 7.72266 36.9316 8.61328 36.709C9.51562 36.4863 10.3711 36.1699 11.1797 35.7598C10.3945 35.373 9.55078 35.0859 8.64844 34.8984C7.75781 34.6992 6.87305 34.5762 5.99414 34.5293C5.9707 34.9512 5.95312 35.373 5.94141 35.7949C5.92969 36.2168 5.91797 36.6387 5.90625 37.0605ZM2.37305 35.584C2.37305 35.7598 2.41992 35.918 2.51367 36.0586C2.61914 36.1875 2.74805 36.3047 2.90039 36.4102C3.06445 36.5156 3.24609 36.6094 3.44531 36.6914C3.65625 36.7617 3.87305 36.8203 4.0957 36.8672C4.08398 36.4688 4.07227 36.082 4.06055 35.707C4.06055 35.332 4.06055 34.957 4.06055 34.582C3.84961 34.6055 3.64453 34.6465 3.44531 34.7051C3.24609 34.752 3.06445 34.8164 2.90039 34.8984C2.74805 34.9688 2.61914 35.0625 2.51367 35.1797C2.41992 35.2969 2.37305 35.4316 2.37305 35.584ZM30.252 36.8145C30.252 37.6348 30.1172 38.3965 29.8477 39.0996C29.5781 39.8027 29.1973 40.4121 28.7051 40.9277C28.2129 41.4434 27.6211 41.8477 26.9297 42.1406C26.25 42.4336 25.4941 42.5801 24.6621 42.5801C23.9238 42.5801 23.2559 42.4395 22.6582 42.1582C22.0723 41.8887 21.5684 41.5195 21.1465 41.0508C20.7246 40.582 20.4023 40.0371 20.1797 39.416C19.957 38.7832 19.8457 38.1094 19.8457 37.3945C19.8457 36.7969 19.9277 36.2285 20.0918 35.6895C20.2676 35.1504 20.5078 34.6523 20.8125 34.1953C21.1172 33.7266 21.4805 33.2988 21.9023 32.9121C22.3242 32.5137 22.7812 32.1562 23.2734 31.8398L23.4844 31.998C22.9922 32.5723 22.6055 33.2051 22.3242 33.8965C22.043 34.5879 21.9023 35.3203 21.9023 36.0938C21.9023 36.6562 21.9844 37.2305 22.1484 37.8164C22.3242 38.3906 22.5762 38.918 22.9043 39.3984C23.2324 39.8789 23.6426 40.2715 24.1348 40.5762C24.627 40.8809 25.1895 41.0332 25.8223 41.0332C26.2207 41.0332 26.5957 40.9512 26.9473 40.7871C27.2988 40.623 27.6035 40.4004 27.8613 40.1191C28.1309 39.8379 28.3418 39.5215 28.4941 39.1699C28.6582 38.8066 28.7402 38.4316 28.7402 38.0449C28.7402 37.6699 28.6816 37.3066 28.5645 36.9551C28.459 36.5918 28.3066 36.2578 28.1074 35.9531C27.9082 35.6367 27.668 35.3555 27.3867 35.1094C27.1055 34.8516 26.8008 34.6406 26.4727 34.4766C26.2852 34.3828 26.1035 34.3125 25.9277 34.2656C25.7637 34.2188 25.582 34.166 25.3828 34.1074C25.3008 34.0957 25.2129 34.0781 25.1191 34.0547C25.0254 34.0195 24.9375 33.9844 24.8555 33.9492C24.7734 33.9023 24.7031 33.8438 24.6445 33.7734C24.5859 33.7031 24.5566 33.6152 24.5566 33.5098C24.5566 33.2988 24.6328 33.1055 24.7852 32.9297C24.9375 32.7539 25.1191 32.6016 25.3301 32.4727C25.541 32.332 25.7637 32.2266 25.998 32.1562C26.2324 32.0742 26.4375 32.0332 26.6133 32.0332C27.2109 32.0332 27.7383 32.1855 28.1953 32.4902C28.6523 32.7949 29.0332 33.1816 29.3379 33.6504C29.6426 34.1191 29.8711 34.6348 30.0234 35.1973C30.1758 35.7598 30.252 36.2988 30.252 36.8145ZM41.8887 36.8145C41.8887 37.6348 41.7539 38.3965 41.4844 39.0996C41.2148 39.8027 40.834 40.4121 40.3418 40.9277C39.8496 41.4434 39.2578 41.8477 38.5664 42.1406C37.8867 42.4336 37.1309 42.5801 36.2988 42.5801C35.5605 42.5801 34.8926 42.4395 34.2949 42.1582C33.709 41.8887 33.2051 41.5195 32.7832 41.0508C32.3613 40.582 32.0391 40.0371 31.8164 39.416C31.5938 38.7832 31.4824 38.1094 31.4824 37.3945C31.4824 36.7969 31.5645 36.2285 31.7285 35.6895C31.9043 35.1504 32.1445 34.6523 32.4492 34.1953C32.7539 33.7266 33.1172 33.2988 33.5391 32.9121C33.9609 32.5137 34.418 32.1562 34.9102 31.8398L35.1211 31.998C34.6289 32.5723 34.2422 33.2051 33.9609 33.8965C33.6797 34.5879 33.5391 35.3203 33.5391 36.0938C33.5391 36.6562 33.6211 37.2305 33.7852 37.8164C33.9609 38.3906 34.2129 38.918 34.541 39.3984C34.8691 39.8789 35.2793 40.2715 35.7715 40.5762C36.2637 40.8809 36.8262 41.0332 37.459 41.0332C37.8574 41.0332 38.2324 40.9512 38.584 40.7871C38.9355 40.623 39.2402 40.4004 39.498 40.1191C39.7676 39.8379 39.9785 39.5215 40.1309 39.1699C40.2949 38.8066 40.377 38.4316 40.377 38.0449C40.377 37.6699 40.3184 37.3066 40.2012 36.9551C40.0957 36.5918 39.9434 36.2578 39.7441 35.9531C39.5449 35.6367 39.3047 35.3555 39.0234 35.1094C38.7422 34.8516 38.4375 34.6406 38.1094 34.4766C37.9219 34.3828 37.7402 34.3125 37.5645 34.2656C37.4004 34.2188 37.2188 34.166 37.0195 34.1074C36.9375 34.0957 36.8496 34.0781 36.7559 34.0547C36.6621 34.0195 36.5742 33.9844 36.4922 33.9492C36.4102 33.9023 36.3398 33.8438 36.2812 33.7734C36.2227 33.7031 36.1934 33.6152 36.1934 33.5098C36.1934 33.2988 36.2695 33.1055 36.4219 32.9297C36.5742 32.7539 36.7559 32.6016 36.9668 32.4727C37.1777 32.332 37.4004 32.2266 37.6348 32.1562C37.8691 32.0742 38.0742 32.0332 38.25 32.0332C38.8477 32.0332 39.375 32.1855 39.832 32.4902C40.2891 32.7949 40.6699 33.1816 40.9746 33.6504C41.2793 34.1191 41.5078 34.6348 41.6602 35.1973C41.8125 35.7598 41.8887 36.2988 41.8887 36.8145ZM57.4102 39.3105C57.1758 39.7676 56.9062 40.207 56.6016 40.6289C56.2969 41.0508 55.9453 41.4258 55.5469 41.7539C55.1484 42.082 54.7031 42.3398 54.2109 42.5273C53.7188 42.7266 53.1621 42.8262 52.541 42.8262C51.416 42.8262 50.4902 42.5684 49.7637 42.0527C49.0488 41.5371 48.4453 40.8164 47.9531 39.8906C47.8125 39.9492 47.6719 40.002 47.5312 40.0488C47.4023 40.084 47.2734 40.125 47.1445 40.1719C47.1211 40.3711 47.0977 40.5527 47.0742 40.7168C47.0508 40.8809 47.0273 41.0332 47.0039 41.1738C46.9805 41.3262 46.9512 41.4902 46.916 41.666C46.8809 41.8418 46.8223 42.0059 46.7402 42.1582C46.6582 42.3105 46.5469 42.4336 46.4062 42.5273C46.2656 42.6328 46.0723 42.6855 45.8262 42.6855C45.4746 42.6855 45.2285 42.5742 45.0879 42.3516C44.9473 42.1406 44.8359 41.9062 44.7539 41.6484C44.5781 41.0859 44.4141 40.4062 44.2617 39.6094C44.1211 38.8125 43.998 37.9922 43.8926 37.1484C43.7871 36.293 43.7051 35.4492 43.6465 34.6172C43.5879 33.7852 43.5586 33.0469 43.5586 32.4023C43.5586 31.6289 43.582 30.8145 43.6289 29.959C43.6758 29.0918 43.7578 28.2188 43.875 27.3398C43.9922 26.4609 44.1504 25.5938 44.3496 24.7383C44.5605 23.8711 44.8242 23.0449 45.1406 22.2598C45.457 21.4746 45.832 20.748 46.2656 20.0801C46.7109 19.4004 47.2324 18.8145 47.8301 18.3223C48.0996 18.0996 48.4043 17.9062 48.7441 17.7422C49.0957 17.5781 49.4414 17.4961 49.7812 17.4961C49.9219 17.4961 50.0801 17.5312 50.2559 17.6016C50.4434 17.6602 50.5371 17.7773 50.5371 17.9531C50.5371 18.0469 50.4902 18.1582 50.3965 18.2871C48.7207 20.5957 47.5078 23.0508 46.7578 25.6523C46.0078 28.2422 45.6328 30.9902 45.6328 33.8965C45.6328 35.0918 45.6855 36.2461 45.791 37.3594C45.9082 38.4609 46.0605 39.6152 46.248 40.8223C46.2949 40.2129 46.3594 39.5625 46.4414 38.8711C46.5352 38.168 46.6582 37.4766 46.8105 36.7969C46.9746 36.1172 47.1797 35.4668 47.4258 34.8457C47.6719 34.2129 47.9766 33.6562 48.3398 33.1758C48.7031 32.6953 49.125 32.3145 49.6055 32.0332C50.0977 31.7402 50.6719 31.5938 51.3281 31.5938C52.0195 31.5938 52.5938 31.7988 53.0508 32.209C53.5078 32.6074 53.7363 33.1582 53.7363 33.8613C53.7363 34.2598 53.6719 34.6523 53.543 35.0391C53.4141 35.4258 53.2383 35.7949 53.0156 36.1465C52.8047 36.4863 52.5586 36.8086 52.2773 37.1133C52.0078 37.418 51.7266 37.6816 51.4336 37.9043C51.0117 38.2324 50.5488 38.5488 50.0449 38.8535C50.2324 39.2168 50.4434 39.5625 50.6777 39.8906C50.9121 40.207 51.1699 40.4883 51.4512 40.7344C51.7324 40.9688 52.043 41.1562 52.3828 41.2969C52.7344 41.4375 53.1211 41.5078 53.543 41.5078C53.918 41.5078 54.2812 41.4492 54.6328 41.332C54.9961 41.2031 55.3359 41.0391 55.6523 40.8398C55.9688 40.6289 56.2617 40.3887 56.5312 40.1191C56.8125 39.8379 57.0645 39.5449 57.2871 39.2402L57.4102 39.3105ZM50.4668 33.8086C49.8809 33.8086 49.4004 33.9961 49.0254 34.3711C48.6504 34.7344 48.3398 35.1973 48.0938 35.7598C47.8594 36.3105 47.6777 36.9199 47.5488 37.5879C47.4199 38.2559 47.3145 38.8887 47.2324 39.4863C47.7949 39.2637 48.3281 38.9941 48.832 38.6777C49.3477 38.3496 49.793 37.9922 50.168 37.6055C50.543 37.2188 50.8418 36.8086 51.0645 36.375C51.2871 35.9297 51.3984 35.4668 51.3984 34.9863C51.3984 34.6816 51.3164 34.4121 51.1523 34.1777C51 33.9316 50.7715 33.8086 50.4668 33.8086ZM84.375 22.6992C84.375 23.6602 84.1348 24.5566 83.6543 25.3887C83.1855 26.2207 82.5703 26.9414 81.8086 27.5508C81.0586 28.1602 80.2207 28.6406 79.2949 28.9922C78.3691 29.332 77.4551 29.4902 76.5527 29.4668H76.2715V29.1504C77.0449 28.9863 77.7715 28.7051 78.4512 28.3066C79.1426 27.8965 79.7402 27.3984 80.2441 26.8125C80.7598 26.2266 81.1641 25.5703 81.457 24.8438C81.7617 24.1172 81.9141 23.3555 81.9141 22.5586C81.9141 22.0312 81.8496 21.5332 81.7207 21.0645C81.5918 20.5957 81.3926 20.1914 81.123 19.8516C80.8535 19.5117 80.5078 19.2422 80.0859 19.043C79.6758 18.8438 79.1836 18.7441 78.6094 18.7441C77.7891 18.7441 76.957 18.8672 76.1133 19.1133C75.2695 19.3594 74.4551 19.7051 73.6699 20.1504C72.8848 20.5957 72.1465 21.123 71.4551 21.7324C70.7754 22.3418 70.1777 23.0098 69.6621 23.7363C69.1582 24.4629 68.7598 25.2363 68.4668 26.0566C68.1738 26.877 68.0273 27.7148 68.0273 28.5703C68.0273 29.4844 68.1562 30.2754 68.4141 30.9434C68.6836 31.5996 69.041 32.1797 69.4863 32.6836C69.9434 33.1758 70.4707 33.5977 71.0684 33.9492C71.666 34.3008 72.3047 34.623 72.9844 34.916C73.6641 35.1973 74.3555 35.4609 75.0586 35.707C75.7734 35.9531 76.4707 36.2168 77.1504 36.498C77.8301 36.7793 78.4688 37.0957 79.0664 37.4473C79.6641 37.7871 80.1855 38.1973 80.6309 38.6777C81.0879 39.1465 81.4453 39.709 81.7031 40.3652C81.9727 41.0098 82.1074 41.7715 82.1074 42.6504C82.1074 43.6113 81.9082 44.4668 81.5098 45.2168C81.123 45.9668 80.6074 46.5938 79.9629 47.0977C79.3184 47.6133 78.5801 48 77.748 48.2578C76.916 48.5273 76.0605 48.6621 75.1816 48.6621C74.2324 48.6621 73.3535 48.498 72.5449 48.1699C71.7363 47.8535 71.0098 47.4199 70.3652 46.8691C69.7207 46.3301 69.1582 45.7031 68.6777 44.9883C68.1973 44.2852 67.8105 43.5527 67.5176 42.791L67.7812 42.6504C68.1328 43.2715 68.5371 43.8809 68.9941 44.4785C69.4512 45.0879 69.9668 45.627 70.541 46.0957C71.1152 46.5762 71.748 46.9629 72.4395 47.2559C73.1426 47.5488 73.9043 47.6953 74.7246 47.6953C75.3926 47.6953 76.0137 47.6016 76.5879 47.4141C77.1621 47.2266 77.6602 46.957 78.082 46.6055C78.5039 46.2539 78.832 45.8203 79.0664 45.3047C79.3125 44.7891 79.4355 44.2031 79.4355 43.5469C79.4355 42.5859 79.2305 41.7949 78.8203 41.1738C78.4102 40.5527 77.8711 40.0254 77.2031 39.5918C76.5352 39.1582 75.7734 38.7891 74.918 38.4844C74.0625 38.1797 73.1836 37.875 72.2812 37.5703C71.3906 37.2539 70.5176 36.9023 69.6621 36.5156C68.8066 36.1172 68.0449 35.6191 67.377 35.0215C66.709 34.4238 66.1699 33.6855 65.7598 32.8066C65.3496 31.916 65.1445 30.8262 65.1445 29.5371C65.1445 28.3652 65.3262 27.2637 65.6895 26.2324C66.0527 25.1895 66.5508 24.2344 67.1836 23.3672C67.8281 22.5 68.584 21.7266 69.4512 21.0469C70.3184 20.3555 71.25 19.7695 72.2461 19.2891C73.2539 18.8086 74.3027 18.4453 75.3926 18.1992C76.4824 17.9414 77.5781 17.8125 78.6797 17.8125C79.4648 17.8125 80.2031 17.9062 80.8945 18.0938C81.5977 18.2812 82.2012 18.5742 82.7051 18.9727C83.2207 19.3594 83.625 19.8633 83.918 20.4844C84.2227 21.1055 84.375 21.8438 84.375 22.6992ZM99.7559 39.416C99.5566 39.8379 99.3105 40.2598 99.0176 40.6816C98.7363 41.0918 98.4199 41.4668 98.0684 41.8066C97.7168 42.1348 97.3301 42.4043 96.9082 42.6152C96.4863 42.8262 96.0352 42.9316 95.5547 42.9316C95.0273 42.9316 94.5703 42.791 94.1836 42.5098C93.7969 42.2402 93.4688 41.8828 93.1992 41.4375C92.9297 40.9805 92.707 40.459 92.5312 39.873C92.3555 39.2871 92.209 38.6836 92.0918 38.0625C91.9746 37.4414 91.875 36.8203 91.793 36.1992C91.7227 35.5781 91.6523 35.0098 91.582 34.4941C91.207 34.9863 90.8672 35.5078 90.5625 36.0586C90.2578 36.6094 89.9648 37.1836 89.6836 37.7812C89.4023 38.3672 89.127 38.9648 88.8574 39.5742C88.5879 40.1836 88.3008 40.7871 87.9961 41.3848C87.9258 41.5137 87.8555 41.6543 87.7852 41.8066C87.7148 41.9473 87.6328 42.0762 87.5391 42.1934C87.4453 42.3223 87.334 42.4277 87.2051 42.5098C87.0762 42.5918 86.9238 42.6328 86.748 42.6328C86.584 42.6328 86.4434 42.6035 86.3262 42.5449C86.2207 42.4863 86.127 42.4102 86.0449 42.3164C85.9746 42.2344 85.916 42.1406 85.8691 42.0352C85.834 41.9297 85.8047 41.8301 85.7812 41.7363C85.6406 41.2324 85.5117 40.5996 85.3945 39.8379C85.2891 39.0762 85.1953 38.2617 85.1133 37.3945C85.0312 36.5273 84.9668 35.6484 84.9199 34.7578C84.8848 33.8555 84.8672 33.0234 84.8672 32.2617C84.8672 31.1719 84.9375 30.0527 85.0781 28.9043C85.2188 27.7441 85.4355 26.6133 85.7285 25.5117C86.0332 24.4102 86.4141 23.373 86.8711 22.4004C87.3398 21.416 87.8906 20.5547 88.5234 19.8164C89.1562 19.0781 89.877 18.4922 90.6855 18.0586C91.5059 17.625 92.4199 17.4082 93.4277 17.4082C94.0957 17.4082 94.623 17.6074 95.0098 18.0059C95.3965 18.3926 95.5898 18.9492 95.5898 19.6758C95.5898 20.7656 95.3965 21.8145 95.0098 22.8223C94.6348 23.8184 94.1484 24.7734 93.5508 25.6875C92.9648 26.6016 92.3086 27.4688 91.582 28.2891C90.8672 29.0977 90.1758 29.8477 89.5078 30.5391L89.2793 30.3633C89.5723 30.0352 89.8828 29.6309 90.2109 29.1504C90.5508 28.6582 90.8789 28.1309 91.1953 27.5684C91.5234 26.9941 91.834 26.3965 92.127 25.7754C92.4199 25.1426 92.6777 24.5215 92.9004 23.9121C93.123 23.3027 93.2988 22.7168 93.4277 22.1543C93.5566 21.5801 93.6211 21.0586 93.6211 20.5898C93.6211 20.3438 93.5977 20.1094 93.5508 19.8867C93.5039 19.6641 93.4219 19.4707 93.3047 19.3066C93.1875 19.1309 93.0352 18.9961 92.8477 18.9023C92.6719 18.7969 92.4551 18.7441 92.1973 18.7441C91.6816 18.7441 91.1953 18.9434 90.7383 19.3418C90.293 19.7402 89.8828 20.2793 89.5078 20.959C89.1328 21.627 88.7988 22.4062 88.5059 23.2969C88.2246 24.1875 87.9785 25.1191 87.7676 26.0918C87.5684 27.0645 87.416 28.0488 87.3105 29.0449C87.2051 30.041 87.1523 30.9902 87.1523 31.8926C87.1523 32.502 87.1523 33.1172 87.1523 33.7383C87.1523 34.3594 87.1641 35.0098 87.1875 35.6895C87.2227 36.3691 87.2754 37.0898 87.3457 37.8516C87.4277 38.6133 87.5391 39.4395 87.6797 40.3301C88.1953 38.9941 88.7402 37.6875 89.3145 36.4102C89.8887 35.1211 90.5098 33.9434 91.1777 32.877C91.2715 32.7246 91.3652 32.5723 91.459 32.4199C91.5645 32.2676 91.6758 32.1328 91.793 32.0156C91.9102 31.8867 92.0391 31.7812 92.1797 31.6992C92.3203 31.6172 92.4727 31.5762 92.6367 31.5762C92.8359 31.5762 92.9941 31.6348 93.1113 31.752C93.2285 31.8574 93.3223 31.9922 93.3926 32.1562C93.4629 32.3203 93.5098 32.4961 93.5332 32.6836C93.5684 32.8711 93.5977 33.041 93.6211 33.1934C93.668 33.5332 93.7207 33.9727 93.7793 34.5117C93.8379 35.0508 93.9082 35.6309 93.9902 36.252C94.0723 36.8613 94.1719 37.4766 94.2891 38.0977C94.418 38.7188 94.5762 39.2812 94.7637 39.7852C94.9629 40.2773 95.1973 40.6816 95.4668 40.998C95.7363 41.3145 96.0586 41.4727 96.4336 41.4727C96.7383 41.4727 97.043 41.4082 97.3477 41.2793C97.6523 41.1504 97.9453 40.9863 98.2266 40.7871C98.5078 40.5879 98.7656 40.3594 99 40.1016C99.2461 39.8438 99.4512 39.5918 99.6152 39.3457L99.7559 39.416ZM109.213 36.8145C109.213 37.6348 109.078 38.3965 108.809 39.0996C108.539 39.8027 108.158 40.4121 107.666 40.9277C107.174 41.4434 106.582 41.8477 105.891 42.1406C105.211 42.4336 104.455 42.5801 103.623 42.5801C102.885 42.5801 102.217 42.4395 101.619 42.1582C101.033 41.8887 100.529 41.5195 100.107 41.0508C99.6855 40.582 99.3633 40.0371 99.1406 39.416C98.918 38.7832 98.8066 38.1094 98.8066 37.3945C98.8066 36.7969 98.8887 36.2285 99.0527 35.6895C99.2285 35.1504 99.4688 34.6523 99.7734 34.1953C100.078 33.7266 100.441 33.2988 100.863 32.9121C101.285 32.5137 101.742 32.1562 102.234 31.8398L102.445 31.998C101.953 32.5723 101.566 33.2051 101.285 33.8965C101.004 34.5879 100.863 35.3203 100.863 36.0938C100.863 36.6562 100.945 37.2305 101.109 37.8164C101.285 38.3906 101.537 38.918 101.865 39.3984C102.193 39.8789 102.604 40.2715 103.096 40.5762C103.588 40.8809 104.15 41.0332 104.783 41.0332C105.182 41.0332 105.557 40.9512 105.908 40.7871C106.26 40.623 106.564 40.4004 106.822 40.1191C107.092 39.8379 107.303 39.5215 107.455 39.1699C107.619 38.8066 107.701 38.4316 107.701 38.0449C107.701 37.6699 107.643 37.3066 107.525 36.9551C107.42 36.5918 107.268 36.2578 107.068 35.9531C106.869 35.6367 106.629 35.3555 106.348 35.1094C106.066 34.8516 105.762 34.6406 105.434 34.4766C105.246 34.3828 105.064 34.3125 104.889 34.2656C104.725 34.2188 104.543 34.166 104.344 34.1074C104.262 34.0957 104.174 34.0781 104.08 34.0547C103.986 34.0195 103.898 33.9844 103.816 33.9492C103.734 33.9023 103.664 33.8438 103.605 33.7734C103.547 33.7031 103.518 33.6152 103.518 33.5098C103.518 33.2988 103.594 33.1055 103.746 32.9297C103.898 32.7539 104.08 32.6016 104.291 32.4727C104.502 32.332 104.725 32.2266 104.959 32.1562C105.193 32.0742 105.398 32.0332 105.574 32.0332C106.172 32.0332 106.699 32.1855 107.156 32.4902C107.613 32.7949 107.994 33.1816 108.299 33.6504C108.604 34.1191 108.832 34.6348 108.984 35.1973C109.137 35.7598 109.213 36.2988 109.213 36.8145ZM121.992 35.7773C121.992 36.4336 121.863 37.1191 121.605 37.834C121.359 38.5371 121.014 39.1816 120.568 39.7676C120.123 40.3535 119.59 40.8398 118.969 41.2266C118.359 41.6016 117.691 41.7891 116.965 41.7891C116.707 41.7891 116.443 41.748 116.174 41.666C115.916 41.5723 115.676 41.4434 115.453 41.2793C115.242 41.1035 115.066 40.8984 114.926 40.6641C114.797 40.4297 114.732 40.166 114.732 39.873C114.732 39.7324 114.791 39.6152 114.908 39.5215C115.025 39.416 115.154 39.3633 115.295 39.3633C115.471 39.3633 115.617 39.4512 115.734 39.627C115.863 39.8027 115.998 39.9961 116.139 40.207C116.291 40.4062 116.467 40.5938 116.666 40.7695C116.877 40.9453 117.152 41.0332 117.492 41.0332C117.914 41.0332 118.289 40.8926 118.617 40.6113C118.945 40.3184 119.221 39.9668 119.443 39.5566C119.666 39.1465 119.836 38.7129 119.953 38.2559C120.07 37.7871 120.129 37.377 120.129 37.0254C120.129 36.5801 120.07 36.1406 119.953 35.707C119.836 35.2734 119.654 34.8926 119.408 34.5645C119.174 34.2246 118.869 33.9551 118.494 33.7559C118.131 33.5449 117.703 33.4395 117.211 33.4395C116.637 33.4395 116.15 33.6328 115.752 34.0195C115.365 34.4062 115.043 34.9043 114.785 35.5137C114.539 36.1113 114.346 36.7852 114.205 37.5352C114.076 38.2852 113.977 39.0293 113.906 39.7676C113.848 40.4941 113.812 41.168 113.801 41.7891C113.789 42.4102 113.783 42.9023 113.783 43.2656C113.783 44.9648 113.736 46.4941 113.643 47.8535C113.549 49.2246 113.42 50.4609 113.256 51.5625C113.092 52.6641 112.898 53.6367 112.676 54.4805C112.453 55.3359 112.213 56.0977 111.955 56.7656H111.516V48.3633C111.516 45.7969 111.469 43.248 111.375 40.7168C111.281 38.1738 111.234 35.6133 111.234 33.0352C111.234 32.7656 111.287 32.543 111.393 32.3672C111.51 32.1797 111.656 32.0273 111.832 31.9102C112.02 31.793 112.23 31.7109 112.465 31.6641C112.699 31.6172 112.939 31.5938 113.186 31.5938C113.256 31.5938 113.373 31.6113 113.537 31.6465C113.701 31.6699 113.783 31.7344 113.783 31.8398C113.783 32.6602 113.777 33.4688 113.766 34.2656C113.754 35.0625 113.736 35.8652 113.713 36.6738C113.877 36.1113 114.088 35.5312 114.346 34.9336C114.604 34.3242 114.92 33.7734 115.295 33.2812C115.67 32.7891 116.115 32.3848 116.631 32.0684C117.146 31.752 117.75 31.5938 118.441 31.5938C119.027 31.5938 119.537 31.7109 119.971 31.9453C120.416 32.1797 120.785 32.4902 121.078 32.877C121.383 33.2637 121.611 33.709 121.764 34.2129C121.916 34.7168 121.992 35.2383 121.992 35.7773Z" fill="#E9DDDB"/>
</svg>
